<?xml version="1.0" standalone="no"?>
<!DOCTYPE svg PUBLIC "-//W3C//DTD SVG 20010904//EN"
 "http://www.w3.org/TR/2001/REC-SVG-20010904/DTD/svg10.dtd">
<svg version="1.0" xmlns="http://www.w3.org/2000/svg"
 width="291.000000pt" height="39.000000pt" viewBox="0 0 291.000000 39.000000"
 preserveAspectRatio="xMidYMid meet">

<g transform="translate(0.000000,39.000000) scale(0.100000,-0.100000)"
fill="#000000" stroke="none">
<path d="M1390 305 c0 -60 -9 -80 -25 -55 -12 19 -63 10 -94 -16 -78 -65 10
-191 100 -144 13 7 19 7 19 0 0 -5 14 -10 30 -10 l30 0 0 145 0 145 -30 0 -30
0 0 -65z m-6 -117 c24 -39 -35 -76 -68 -43 -9 9 -16 20 -16 25 0 17 33 41 53
38 11 -2 25 -11 31 -20z"/>
<path d="M80 170 l0 -90 29 0 c27 0 29 2 33 55 5 60 18 81 42 72 12 -5 16 -21
16 -67 l0 -60 35 0 34 0 3 63 c3 54 5 62 23 62 18 0 20 -8 23 -62 l3 -63 34 0
35 0 0 70 c0 57 -4 74 -20 90 -24 24 -72 26 -90 5 -12 -14 -15 -14 -30 0 -20
18 -53 19 -83 4 -16 -9 -22 -9 -25 0 -2 6 -17 11 -33 11 l-29 0 0 -90z"/>
<path d="M475 248 c-31 -17 -45 -39 -45 -74 0 -46 9 -63 41 -79 49 -26 130
-13 143 22 5 12 -5 14 -56 11 -42 -2 -62 1 -65 10 -4 9 13 12 61 12 64 0 66 1
66 26 0 38 -50 84 -92 84 -18 0 -42 -6 -53 -12z m83 -45 c2 -9 -8 -13 -33 -13
-33 0 -36 2 -25 15 15 18 51 16 58 -2z"/>
<path d="M660 170 l0 -90 29 0 c27 0 29 3 33 50 6 57 21 80 54 80 19 0 24 5
24 25 0 28 -18 32 -53 14 -16 -9 -22 -9 -25 0 -2 6 -17 11 -33 11 l-29 0 0
-90z"/>
<path d="M874 250 c-54 -22 -70 -91 -31 -136 19 -21 33 -27 68 -28 40 -1 44 1
47 24 2 22 -1 26 -24 25 -15 0 -31 8 -38 18 -16 24 5 52 38 52 23 -1 26 3 24
25 -2 20 -9 25 -33 27 -16 1 -40 -2 -51 -7z"/>
<path d="M1023 236 c-22 -19 -28 -32 -28 -66 0 -34 6 -47 28 -66 30 -26 66
-31 98 -14 13 7 19 7 19 0 0 -5 14 -10 30 -10 l30 0 0 90 0 90 -30 0 c-16 0
-30 -5 -30 -10 0 -7 -6 -7 -19 0 -32 17 -68 12 -98 -14z m107 -41 c15 -18 10
-45 -12 -59 -35 -22 -74 27 -48 59 16 19 44 19 60 0z"/>
<path d="M1544 250 c-54 -22 -70 -91 -31 -136 18 -20 35 -28 73 -31 43 -5 54
-2 82 22 88 74 -12 191 -124 145z m90 -62 c15 -24 -3 -52 -37 -56 -33 -4 -53
28 -37 59 14 25 58 23 74 -3z"/>
<path d="M1860 130 l0 -130 30 0 c29 0 30 1 30 50 0 47 1 50 19 40 58 -31 121
11 121 80 0 64 -60 107 -116 81 -15 -6 -24 -7 -24 -1 0 6 -13 10 -30 10 l-30
0 0 -130z m130 65 c15 -18 10 -45 -12 -59 -35 -22 -74 27 -48 59 16 19 44 19
60 0z"/>
<path d="M2100 170 l0 -90 29 0 c27 0 29 3 33 50 6 57 21 80 54 80 19 0 24 5
24 25 0 28 -18 32 -53 14 -16 -9 -22 -9 -25 0 -2 6 -17 11 -33 11 l-29 0 0
-90z"/>
<path d="M2289 231 c-58 -58 -24 -139 61 -147 47 -5 90 10 98 35 4 11 -6 12
-50 7 -43 -6 -57 -4 -68 8 -11 14 -4 16 59 16 79 0 84 6 56 60 -31 59 -107 69
-156 21z m101 -26 c11 -13 7 -15 -24 -15 -34 0 -44 8 -29 23 11 12 40 8 53 -8z"/>
<path d="M2522 244 c-34 -24 -26 -66 14 -79 40 -13 38 -30 -3 -29 -24 1 -34
-4 -39 -18 -7 -25 -4 -28 40 -35 48 -8 95 13 103 45 8 33 -7 55 -46 66 -39 11
-41 31 -2 23 29 -6 49 13 35 34 -9 15 -78 10 -102 -7z"/>
<path d="M2724 250 c-54 -22 -70 -91 -31 -136 18 -20 35 -28 73 -31 43 -5 54
-2 82 22 88 74 -12 191 -124 145z m90 -62 c15 -24 -3 -52 -37 -56 -33 -4 -53
28 -37 59 14 25 58 23 74 -3z"/>
</g>
</svg>
